<svg width="66" height="28" viewBox="0 0 66 28" fill="none" xmlns="http://www.w3.org/2000/svg">
<path d="M8.32082 22.0671L8.26924 21.625H7.82418H1.99551L1.96036 21.5547C1.3222 20.2784 0.700504 18.4154 0.541696 16.5097C0.381965 14.593 0.701949 12.6936 1.98388 11.4117C1.98388 11.4117 1.98389 11.4117 1.98389 11.4117L2.0054 11.3901L2.03259 11.3811C5.77051 10.1351 8.09031 8.91808 9.68436 7.75409C11.1398 6.69135 11.9737 5.68285 12.7035 4.80027C12.7749 4.71385 12.8454 4.62864 12.9153 4.5447C13.6953 3.60876 14.4387 2.79313 15.7343 2.24349C17.0522 1.68438 18.9275 1.375 22.0722 1.375H33.3222C35.5169 1.375 37.1055 1.79312 38.3667 2.4417C39.6323 3.09256 40.6005 3.99161 41.5388 5.00809C41.76 5.24765 41.9806 5.49276 42.2048 5.74184C43.8814 7.60448 45.7574 9.68875 49.5388 11.3335L49.6342 11.375H49.7382H62.1103L62.1401 11.395L62.1416 11.396C64.081 12.689 65.3182 15.1673 65.4798 17.4292C65.56 18.5532 65.3634 19.5841 64.8116 20.3608C64.2759 21.1148 63.3376 21.625 62.0722 21.625H56.3203H55.8752L55.8236 22.067C55.5252 24.6246 53.4294 26.625 50.8222 26.625C48.215 26.625 46.1192 24.6247 45.8208 22.0671L45.7692 21.625H45.3242H18.8203H18.3752L18.3236 22.067C18.0252 24.6246 15.9294 26.625 13.3222 26.625C10.715 26.625 8.61921 24.6247 8.32082 22.0671ZM2.53366 21.375H8.44723V21.5C8.44723 24.1998 10.6224 26.375 13.3222 26.375C16.022 26.375 18.1972 24.1998 18.1972 21.5V21.375H45.9472V21.5C45.9472 24.1998 48.1224 26.375 50.8222 26.375C53.522 26.375 55.6972 24.1998 55.6972 21.5V21.375H62.0722C62.6742 21.375 63.18 21.2745 63.6061 21.0708C64.0363 20.8652 64.3573 20.5678 64.6063 20.2173C65.1093 19.5094 65.3056 18.5089 65.2296 17.4458C65.0815 15.3711 63.8451 12.9491 62.1048 11.7169L61.975 11.625H61.8159H49.5479L49.5226 11.6142C45.6568 9.9574 43.7047 7.78594 42.0221 5.91438C41.7964 5.66334 41.5756 5.4177 41.3556 5.17941C40.429 4.17553 39.5194 3.2708 38.2788 2.62915C37.0318 1.98418 35.492 1.625 33.3222 1.625H22.0722C18.9668 1.625 17.0922 1.94065 15.832 2.47526C14.5482 3.01992 13.8873 3.7684 13.1066 4.7053C13.0779 4.73975 13.049 4.77443 13.02 4.80933C12.2773 5.70163 11.4112 6.74221 9.88536 7.86306C8.29654 9.03016 5.97368 10.2967 2.31693 11.5367L2.20096 11.5761L2.1163 11.6645C0.951303 12.8817 0.639813 14.6848 0.790267 16.4903C0.933722 18.2117 1.52011 19.8797 2.08018 21.0856L2.21458 21.375H2.53366Z" stroke="black" stroke-opacity="0.2"/>
<path d="M33.8223 4.15955V3.90678C34.9218 4.04626 35.9563 4.63453 36.9764 5.46452C38.0083 6.30399 38.9935 7.35973 40.0177 8.4572C40.1594 8.60906 40.3019 8.76173 40.4453 8.91472C41.6123 10.1596 42.8218 11.3928 44.1028 12.3136C45.2463 13.1355 46.4787 13.7319 47.8223 13.8526V14.1046C46.4315 13.9907 45.1725 13.4082 43.9858 12.5606C42.652 11.6078 41.4419 10.3441 40.2617 9.08528C40.1381 8.9534 40.0146 8.82127 39.8914 8.68933C38.8539 7.57906 37.8289 6.48216 36.819 5.66048C35.8459 4.86884 34.8542 4.30137 33.8223 4.15955Z" stroke="black" stroke-opacity="0.2"/>
<path d="M10.6973 20.875C10.6973 19.4327 11.8799 18.25 13.3223 18.25C14.7646 18.25 15.9473 19.4327 15.9473 20.875C15.9473 22.3173 14.7646 23.5 13.3223 23.5C11.8799 23.5 10.6973 22.3173 10.6973 20.875ZM15.6973 20.875C15.6973 19.5559 14.6413 18.5 13.3223 18.5C12.0032 18.5 10.9473 19.5559 10.9473 20.875C10.9473 22.1941 12.0032 23.25 13.3223 23.25C14.6413 23.25 15.6973 22.1941 15.6973 20.875Z" stroke="black" stroke-opacity="0.2"/>
<path d="M48.1973 20.875C48.1973 19.4327 49.3799 18.25 50.8223 18.25C52.2646 18.25 53.4473 19.4327 53.4473 20.875C53.4473 22.3173 52.2646 23.5 50.8223 23.5C49.3799 23.5 48.1973 22.3173 48.1973 20.875ZM53.1973 20.875C53.1973 19.5559 52.1413 18.5 50.8223 18.5C49.5032 18.5 48.4473 19.5559 48.4473 20.875C48.4473 22.1941 49.5032 23.25 50.8223 23.25C52.1413 23.25 53.1973 22.1941 53.1973 20.875Z" stroke="black" stroke-opacity="0.2"/>
</svg>
