<svg width="48" height="39" viewBox="0 0 48 39" fill="none" xmlns="http://www.w3.org/2000/svg">
<path fill-rule="evenodd" clip-rule="evenodd" d="M32.4637 18.9899L33.3914 20.6968H27.2077V35.4875H41.1204L42.048 37.1944H6.1837L7.11136 35.4875H21.0241V20.6968H14.8404L15.7681 18.9899H32.4637ZM25.3534 20.6968H22.8794V35.4884H25.3534V20.6968ZM28.6981 2.49219C30.8164 2.49219 32.9294 2.59203 33.975 2.77443C36.8111 3.26883 41.6508 5.60067 43.0428 6.28803C43.9934 6.36675 45.592 6.54147 45.976 6.58563L46.887 6.68931L46.839 7.53411C46.839 7.53795 46.7638 8.96355 46.7638 9.69795C46.7649 10.9546 47.247 11.3914 47.2689 11.4077L47.5736 11.6794L47.6132 13.6234C47.6153 15.4253 46.5478 16.0522 45.7444 16.1866C45.3992 16.2449 43.5227 16.4064 42.6061 16.4835L42.2392 16.5141C42.1513 16.5214 42.1016 16.5255 42.1016 16.5255H42.0285L41.8837 16.8081C41.1538 18.1033 39.6827 18.9898 37.9871 18.9898C36.1705 18.9898 34.6105 17.9731 33.9447 16.5255H14.031C13.3663 17.9722 11.8073 18.9898 9.99063 18.9898C8.17393 18.9898 6.61393 17.9731 5.94819 16.5255H5.85219C5.85219 16.5255 5.22045 16.4707 4.52145 16.3953L3.91901 16.3264C3.32643 16.2541 2.80294 16.1737 2.70402 16.1069C2.4828 15.96 2.04558 15.4263 1.85671 13.3997L1.85462 12.9456C1.85358 11.5959 1.99758 10.2125 3.72976 9.44835C3.73497 9.44555 3.76016 9.43261 3.80673 9.41077L3.9288 9.35561C4.71109 9.01311 7.87689 7.80925 14.9826 7.11651C16.5332 6.13827 21.1141 3.31971 23.2981 2.82915C24.3311 2.59875 26.5172 2.49219 28.6981 2.49219ZM37.9871 12.6259C36.591 12.6259 35.4546 13.6704 35.4546 14.9549C35.4546 16.2394 36.591 17.2839 37.9871 17.2839C39.3823 17.2839 40.5176 16.2394 40.5176 14.9549C40.5176 13.6704 39.3823 12.6259 37.9871 12.6259ZM9.99063 12.6259C8.59445 12.6259 7.4581 13.6704 7.4581 14.9549C7.4581 16.2394 8.59445 17.2839 9.99063 17.2839C11.3858 17.2839 12.5211 16.2394 12.5211 14.9549C12.5211 13.6704 11.3858 12.6259 9.99063 12.6259ZM28.6981 4.19907C26.4682 4.19907 24.52 4.31235 23.7364 4.48707C22.4863 4.76835 19.5332 6.31491 16.0313 8.52387L15.6442 8.76771L15.1778 8.81379C7.6981 9.54339 4.8181 10.8519 4.63967 10.9363L4.60002 10.9575L4.53219 10.9872C3.91445 11.2599 3.70889 11.5805 3.70993 12.9437L3.71202 13.3219C3.77254 13.9459 3.85497 14.352 3.9228 14.6045C4.38089 14.664 5.01219 14.7312 5.61219 14.7879C5.70819 12.6365 7.62923 10.9191 9.99063 10.9191C12.3614 10.9191 14.2898 12.6528 14.368 14.8186H33.6077C33.6859 12.6528 35.6153 10.9191 37.9871 10.9191C40.3475 10.9191 42.2685 12.6375 42.3635 14.7888C43.7138 14.6765 45.1621 14.5459 45.4198 14.5066C45.7266 14.4557 45.7569 13.8461 45.7579 13.6378L45.7318 12.3773C45.3698 11.9415 44.9096 11.1101 44.9085 9.69891C44.9085 9.28803 44.9294 8.68995 44.9513 8.19171C44.3158 8.12451 43.4644 8.03619 42.8779 7.98819L42.5002 7.95747L42.1642 7.79139C39.3656 6.40803 35.6529 4.80387 33.6296 4.45059C32.7645 4.30083 30.783 4.19907 28.6981 4.19907Z" fill="black"/>
</svg>
