<svg width="48" height="49" viewBox="0 0 48 49" fill="none" xmlns="http://www.w3.org/2000/svg">
<path d="M23.8278 5.94299C18.4969 5.94299 14.1678 10.3912 14.1678 15.8882C14.1678 21.3852 18.4968 25.8487 23.8278 25.8487C29.1588 25.8487 33.4729 21.385 33.4729 15.8882C33.4729 10.3914 29.1589 5.94299 23.8278 5.94299ZM23.8128 6.91742C28.611 6.91742 32.5128 10.9406 32.5128 15.8881C32.5128 20.8356 28.611 24.8434 23.8128 24.8434C19.0146 24.8434 15.1277 20.8357 15.1277 15.8881C15.1277 10.9406 19.0145 6.91742 23.8128 6.91742ZM23.8128 7.52065C23.6648 7.52065 23.5238 7.54352 23.3778 7.55159V12.9805C23.5226 12.9571 23.6617 12.9496 23.8128 12.9496C23.9638 12.9496 24.1179 12.9571 24.2628 12.9805V7.55159C24.1145 7.54327 23.9631 7.52065 23.8128 7.52065ZM22.8078 7.59799C21.3229 7.78807 19.9714 8.38299 18.8478 9.28382L22.6427 13.1969C22.6962 13.1719 22.7525 13.1411 22.8077 13.1195L22.8078 7.59799ZM24.8328 7.59799V13.1194C24.8847 13.1397 24.9324 13.1735 24.9828 13.1968L28.7928 9.28373C27.67 8.38355 26.3164 7.78854 24.8328 7.59799ZM18.3979 9.65502C18.1823 9.85468 17.9917 10.0825 17.7979 10.3046L21.5179 14.1404C21.6903 13.8989 21.8988 13.6841 22.1329 13.5063L18.3979 9.65502ZM29.243 9.65502L25.508 13.5062C25.7423 13.6841 25.9505 13.8988 26.123 14.1403L29.843 10.3046C29.6493 10.0824 29.4586 9.85468 29.243 9.65502ZM17.4081 10.7532C16.5367 11.9083 15.9596 13.3105 15.7732 14.8364H21.1434C21.1655 14.7771 21.1928 14.7236 21.2184 14.6663L17.4081 10.7532ZM30.2184 10.7532L26.4234 14.6662C26.4487 14.7231 26.4765 14.7776 26.4984 14.8364H31.8686C31.6819 13.3082 31.0921 11.9094 30.2184 10.7532ZM23.8133 13.5217C22.5445 13.5217 21.5333 14.5799 21.5333 15.8881C21.5333 17.1964 22.5445 18.2545 23.8133 18.2545C25.082 18.2545 26.1082 17.1963 26.1082 15.8881C26.1082 14.5799 25.082 13.5217 23.8133 13.5217ZM23.8133 14.1559C24.7338 14.1559 25.4933 14.9389 25.4933 15.8881C25.4933 16.8373 24.7338 17.6049 23.8133 17.6049C22.8927 17.6049 22.1482 16.8373 22.1482 15.8881C22.1482 14.9389 22.8927 14.1559 23.8133 14.1559ZM23.8133 14.7591C23.204 14.7591 22.7183 15.2599 22.7183 15.8881C22.7183 16.5163 23.204 17.0172 23.8133 17.0172C24.4225 17.0172 24.9233 16.5163 24.9233 15.8881C24.9233 15.2599 24.4225 14.7591 23.8133 14.7591ZM15.7281 15.4241C15.7198 15.5798 15.6981 15.7303 15.6981 15.8881C15.6981 16.0407 15.7203 16.1861 15.7281 16.3367H20.9933C20.9706 16.1873 20.9483 16.0439 20.9483 15.8881C20.9483 15.7324 20.9706 15.5735 20.9933 15.4241H15.7281ZM26.6481 15.4241C26.6708 15.5735 26.6931 15.7324 26.6931 15.8881C26.6931 16.0439 26.6708 16.1873 26.6481 16.3367H31.9133C31.9211 16.1861 31.9433 16.0407 31.9433 15.8881C31.9433 15.7303 31.9216 15.5798 31.9133 15.4241H26.6481ZM15.7733 16.9244C15.9572 18.4519 16.5379 19.8505 17.4082 21.0076L21.2032 17.0945C21.1787 17.0386 21.1644 16.9822 21.1432 16.9244L15.7733 16.9244ZM26.4984 16.9244C26.4774 16.9817 26.4627 17.039 26.4384 17.0945L30.2184 21.0076C31.0908 19.8495 31.6842 18.4542 31.8684 16.9244H26.4984ZM21.5035 17.6359L17.7835 21.4716C17.9769 21.6939 18.1832 21.9059 18.3985 22.1057L22.1335 18.2545C21.8982 18.0758 21.6764 17.8788 21.5035 17.6359ZM26.1385 17.6359C25.9655 17.8788 25.7438 18.0758 25.5085 18.2545L29.2435 22.1057C29.4587 21.9059 29.665 21.6939 29.8584 21.4716L26.1385 17.6359ZM22.6285 18.5793L18.8335 22.4924C19.959 23.3974 21.3194 23.9876 22.8085 24.1782V18.6409C22.75 18.618 22.685 18.606 22.6285 18.5793ZM24.9985 18.5793C24.9449 18.6044 24.8888 18.6195 24.8335 18.6412V24.1785C26.3212 23.9874 27.6838 23.397 28.8085 22.4927L24.9985 18.5793ZM23.3785 18.7959V24.2248C23.5245 24.2327 23.6655 24.2554 23.8135 24.2554C23.9638 24.2554 24.1152 24.2327 24.2635 24.2248V18.7959C24.1186 18.8192 23.9645 18.8422 23.8135 18.8422C23.6624 18.8422 23.5233 18.8192 23.3785 18.7959ZM13.0882 24.936C7.75736 24.936 3.44312 29.3843 3.44312 34.8812C3.44312 40.3781 7.75712 44.8417 13.0882 44.8417C18.4194 44.8417 22.7334 40.3781 22.7334 34.8812C22.7334 29.3843 18.4194 24.936 13.0882 24.936ZM34.9134 24.936C29.5825 24.936 25.2682 29.3843 25.2682 34.8812C25.2682 40.3781 29.5822 44.8417 34.9134 44.8417C40.2445 44.8417 44.5585 40.3781 44.5585 34.8812C44.5585 29.3843 40.2445 24.936 34.9134 24.936ZM13.0882 25.9413C17.8864 25.9413 21.7882 29.9336 21.7882 34.8808C21.7882 39.8283 17.8864 43.8515 13.0882 43.8515C8.29006 43.8515 4.38824 39.8283 4.38824 34.8808C4.38824 29.9334 8.29006 25.9413 13.0882 25.9413ZM34.9134 25.9413C39.7115 25.9413 43.5985 29.9336 43.5985 34.8808C43.5985 39.8283 39.7117 43.8515 34.9134 43.8515C30.1152 43.8515 26.2134 39.8283 26.2134 34.8808C26.2134 29.9334 30.1152 25.9413 34.9134 25.9413ZM13.0882 26.5136C12.9403 26.5136 12.7993 26.5363 12.6532 26.5443V31.9578C12.7927 31.9366 12.943 31.9272 13.0882 31.9272C13.2393 31.9272 13.3784 31.9504 13.5232 31.9737V26.5448C13.3772 26.5369 13.2362 26.5294 13.0882 26.5294V26.5141V26.5136ZM34.9134 26.5289C34.763 26.5289 34.6117 26.5358 34.4634 26.5443V31.9732C34.6082 31.9499 34.7623 31.9267 34.9134 31.9267C35.0644 31.9267 35.2035 31.9499 35.3484 31.9732V26.5443C35.2023 26.5363 35.0613 26.5289 34.9134 26.5289ZM12.0682 26.5908C10.5903 26.7828 9.24262 27.3955 8.12321 28.2921L11.9182 32.1897C11.9674 32.1669 12.0176 32.1481 12.0682 32.1278L12.0682 26.5908ZM14.1082 26.5908V32.1281C14.1589 32.1484 14.209 32.1672 14.2582 32.19L18.0532 28.2924C16.9338 27.3958 15.5862 26.7828 14.1082 26.5908ZM33.8934 26.5908C32.4085 26.7809 31.057 27.3912 29.9334 28.2921L33.7434 32.1897C33.7938 32.1665 33.8415 32.1481 33.8934 32.1278V26.5908ZM35.9184 26.5908V32.1281C35.9736 32.1499 36.0298 32.1652 36.0834 32.19L39.8784 28.2924C38.7547 27.3915 37.4033 26.7809 35.9184 26.5908ZM7.67326 28.6633C7.45908 28.8619 7.25087 29.0766 7.05828 29.2974L10.7933 33.1332C10.9691 32.8877 11.1688 32.6783 11.4082 32.499L7.67326 28.6633ZM18.503 28.6633L14.768 32.499C15.0062 32.6778 15.2079 32.9044 15.383 33.1486L19.118 29.3129C18.9232 29.0895 18.7199 28.8639 18.503 28.6633ZM29.483 28.6633C29.2674 28.863 29.0768 29.0907 28.883 29.3129L32.603 33.1486C32.7765 32.9065 32.9825 32.6769 33.218 32.499L29.483 28.6633ZM40.3281 28.6633L36.5932 32.499C36.8288 32.6769 37.0345 32.9065 37.2081 33.1486L40.9281 29.3129C40.7344 29.0907 40.5437 28.863 40.3281 28.6633ZM6.68302 29.746C5.80923 30.9023 5.21969 32.3007 5.03302 33.8292H10.4181C10.4376 33.777 10.4559 33.7253 10.4781 33.6745L6.68302 29.746ZM19.4933 29.746L15.6983 33.6745C15.7205 33.7253 15.7388 33.777 15.7583 33.8292H21.1285C20.9418 32.301 20.3669 30.9021 19.4933 29.746ZM28.5081 29.746C27.6344 30.9021 27.0449 32.301 26.8581 33.8292H32.2433C32.2627 33.777 32.281 33.7253 32.3033 33.6745L28.5081 29.746ZM41.303 29.7613L37.523 33.6589C37.5476 33.7144 37.5617 33.7718 37.583 33.8291H42.9533C42.767 32.3052 42.1726 30.9155 41.303 29.7613ZM13.0881 32.5144V32.5297C11.8194 32.5297 10.7932 33.5724 10.7932 34.8807C10.7932 35.0885 10.8197 35.3075 10.8682 35.4993C10.8733 35.5043 10.8783 35.5094 10.8832 35.5147C11.1505 36.5131 12.0325 37.2469 13.0882 37.2469C14.357 37.2469 15.3832 36.1888 15.3832 34.8806C15.3832 33.5723 14.3569 32.5144 13.0881 32.5144ZM34.9133 32.5144V32.5297C34.6951 32.5297 34.4828 32.5644 34.2833 32.6225C34.2733 32.6231 34.2633 32.6231 34.2533 32.6225C33.3082 32.9138 32.6183 33.8092 32.6183 34.8807C32.6183 35.0885 32.6448 35.3075 32.6933 35.4993C32.6985 35.5043 32.7035 35.5094 32.7083 35.5147C32.9756 36.5131 33.8576 37.2469 34.9133 37.2469C36.1821 37.2469 37.1933 36.1888 37.1933 34.8806C37.1933 33.5723 36.182 32.5144 34.9133 32.5144ZM13.0881 33.1486C14.0087 33.1486 14.7681 33.9316 14.7681 34.8808C14.7681 35.83 14.0087 36.6131 13.0881 36.6131C12.1676 36.6131 11.4081 35.83 11.4081 34.8808C11.4081 33.9316 12.1676 33.1486 13.0881 33.1486ZM34.9133 33.1486C35.8338 33.1486 36.5783 33.9316 36.5783 34.8808C36.5783 35.83 35.8338 36.6131 34.9133 36.6131C33.9927 36.6131 33.2333 35.83 33.2333 34.8808C33.2333 33.9316 33.9927 33.1486 34.9133 33.1486ZM13.0881 33.7517C12.4789 33.7517 11.9932 34.2526 11.9932 34.8808C11.9932 35.509 12.4789 36.0099 13.0881 36.0099C13.6974 36.0099 14.1831 35.509 14.1831 34.8808C14.1831 34.2526 13.6974 33.7517 13.0881 33.7517ZM34.9133 33.7517C34.304 33.7517 33.8033 34.2526 33.8033 34.8808C33.8033 35.509 34.304 36.0099 34.9133 36.0099C35.5225 36.0099 36.0082 35.509 36.0082 34.8808C36.0082 34.2526 35.5225 33.7517 34.9133 33.7517ZM4.98814 34.4168C4.97981 34.5724 4.97314 34.7231 4.97314 34.8808C4.97314 35.0333 4.98035 35.1789 4.98814 35.3293H10.2533C10.2323 35.1855 10.2233 35.0305 10.2233 34.8808C10.2233 34.7198 10.2441 34.5709 10.2683 34.4168H4.98814ZM15.9081 34.4168C15.9323 34.5709 15.9531 34.7198 15.9531 34.8808C15.9531 35.0305 15.9441 35.1855 15.9231 35.3293H21.1734C21.1812 35.1787 21.2034 35.0334 21.2034 34.8808C21.2034 34.723 21.1817 34.5725 21.1734 34.4168H15.9081ZM26.8133 34.4168C26.8049 34.5725 26.7833 34.723 26.7833 34.8808C26.7833 35.0334 26.8055 35.1787 26.8133 35.3293H32.0784C32.0573 35.1852 32.0484 35.0309 32.0484 34.8808C32.0484 34.7201 32.0543 34.5706 32.0784 34.4168H26.8133ZM37.7333 34.4168C37.7574 34.5709 37.7783 34.7198 37.7783 34.8808C37.7783 35.0305 37.7692 35.1855 37.7483 35.3293H42.9985C43.0063 35.1787 43.0285 35.0334 43.0285 34.8808C43.0285 34.723 43.0068 34.5725 42.9985 34.4168H37.7333ZM5.03326 35.9171C5.21739 37.447 5.81072 38.842 6.68326 40.0003L10.4782 36.0872C10.4533 36.0303 10.4247 35.9758 10.4032 35.9171H5.03326ZM15.7733 35.9171C15.7518 35.9758 15.7232 36.0303 15.6983 36.0872L19.4932 40.0003C20.3657 38.8422 20.944 37.4468 21.1282 35.9171H15.7733ZM26.8584 35.9171C27.0426 37.4468 27.6359 38.8422 28.5084 40.0003L32.3034 36.0872C32.2784 36.0303 32.2498 35.9758 32.2284 35.9171H26.8584ZM37.5835 35.9171C37.5607 35.9791 37.5501 36.0426 37.5235 36.1027L41.3185 40.0003C42.1878 38.8436 42.7697 37.4435 42.9535 35.9171H37.5835ZM10.7784 36.6285L7.0434 40.4643C7.23551 40.685 7.44477 40.8998 7.65838 41.0984L11.3934 37.2627C11.1569 37.0831 10.9518 36.873 10.7784 36.6285ZM15.3984 36.6285C15.2259 36.8715 15.0182 37.0837 14.7834 37.2627L18.5034 41.0984C18.72 40.8976 18.9388 40.6879 19.1334 40.4643L15.3984 36.6285ZM32.5881 36.6285L28.8681 40.4643C29.0616 40.6866 29.2679 40.8986 29.4831 41.0984L33.2031 37.2627C32.9706 37.0845 32.7592 36.8697 32.5881 36.6285ZM37.2231 36.6285C37.0519 36.8697 36.8407 37.0845 36.6081 37.2627L40.3281 41.0984C40.5434 40.8986 40.7497 40.6866 40.9431 40.4643L37.2231 36.6285ZM11.9031 37.5721L8.12312 41.4851C9.24252 42.3817 10.5902 42.979 12.0681 43.171V37.6336C12.0133 37.6118 11.9563 37.5973 11.9031 37.5721ZM14.2731 37.5721C14.2199 37.5973 14.163 37.6121 14.1081 37.6339V43.1712C15.586 42.9792 16.9337 42.3819 18.0531 41.4853L14.2731 37.5721ZM33.728 37.5721L29.933 41.4851C31.0567 42.3859 32.4081 42.9809 33.893 43.171V37.6495C33.8368 37.6277 33.7825 37.5978 33.728 37.5721ZM36.098 37.5721C36.0405 37.5993 35.9774 37.6261 35.918 37.6493V43.1708C37.4029 42.9807 38.7543 42.3858 39.878 41.4849L36.098 37.5721ZM13.5231 37.7886C13.3783 37.8118 13.2392 37.8351 13.0881 37.8351C12.9429 37.8351 12.7926 37.8262 12.6531 37.8044V43.218C12.7991 43.2259 12.9401 43.2487 13.0881 43.2487C13.2361 43.2487 13.3771 43.2259 13.5231 43.218V37.7886ZM34.4631 37.7886V43.2175C34.6114 43.2254 34.7628 43.2481 34.9131 43.2481C35.0611 43.2481 35.2021 43.2254 35.3481 43.2175V37.7886C35.2033 37.8118 35.0642 37.8351 34.9131 37.8351C34.7621 37.8351 34.6079 37.8118 34.4631 37.7886Z" fill="black"/>
</svg>
