<svg width="57" height="57" viewBox="0 0 57 57" fill="none" xmlns="http://www.w3.org/2000/svg">
<path fill-rule="evenodd" clip-rule="evenodd" d="M12.759 12.5564C12.7646 12.5897 12.778 12.6218 12.7984 12.6508C12.8189 12.6799 12.8461 12.7053 12.8784 12.7256C12.9107 12.7459 12.9475 12.7607 12.9867 12.7692C13.0259 12.7777 13.0668 12.7797 13.1069 12.7751C13.1471 12.7705 13.1857 12.7594 13.2207 12.7424C13.2557 12.7254 13.2863 12.7029 13.3107 12.6761C13.3602 12.6219 13.3817 12.5537 13.3705 12.4864C13.3705 9.33518 16.4473 6.78139 20.244 6.78139C20.285 6.78255 20.3259 6.77684 20.3642 6.76461C20.4025 6.75238 20.4374 6.73387 20.4669 6.71019C20.4965 6.68652 20.5199 6.65815 20.536 6.62679C20.552 6.59543 20.5602 6.56171 20.5602 6.52764C20.5602 6.49357 20.552 6.45985 20.536 6.42849C20.5199 6.39713 20.4965 6.36876 20.4669 6.34509C20.4374 6.32141 20.4025 6.3029 20.3642 6.29067C20.3259 6.27844 20.285 6.27273 20.244 6.27389C16.1167 6.27389 12.759 9.06077 12.759 12.4864C12.7551 12.5096 12.7551 12.5332 12.759 12.5564ZM12.9066 45.0539C12.9066 48.3643 16.1501 51.0564 20.1385 51.0564C20.1786 51.0582 20.2188 51.0532 20.2565 51.0417C20.2942 51.0302 20.3286 51.0124 20.3578 50.9895C20.387 50.9666 20.4102 50.939 20.426 50.9083C20.4419 50.8777 20.4501 50.8447 20.4501 50.8114C20.4501 50.7781 20.4419 50.7451 20.426 50.7144C20.4102 50.6838 20.387 50.6562 20.3578 50.6333C20.3286 50.6104 20.2942 50.5926 20.2565 50.5811C20.2188 50.5696 20.1786 50.5646 20.1385 50.5664C16.4696 50.5664 13.497 48.0991 13.497 45.0539C13.4991 45.0206 13.4931 44.9873 13.4793 44.956C13.4654 44.9247 13.444 44.8961 13.4164 44.8719C13.3888 44.8477 13.3555 44.8284 13.3186 44.8153C13.2817 44.8021 13.242 44.7953 13.2018 44.7953C13.1616 44.7953 13.1219 44.8021 13.085 44.8153C13.0481 44.8284 13.0148 44.8477 12.9872 44.8719C12.9596 44.8961 12.9382 44.9247 12.9243 44.956C12.9105 44.9873 12.9044 45.0206 12.9066 45.0539ZM14.4879 12.5564C14.5025 12.6189 14.5454 12.6743 14.6078 12.7113C14.6702 12.7482 14.7474 12.7638 14.8233 12.7548C14.8992 12.7458 14.968 12.7129 15.0155 12.6629C15.0629 12.613 15.0854 12.5497 15.0783 12.4864C15.0783 10.1205 17.3935 8.21639 20.244 8.21639C20.2865 8.22172 20.3298 8.21937 20.3711 8.2095C20.4124 8.19963 20.4507 8.18249 20.4832 8.15923C20.5158 8.13597 20.542 8.10714 20.5599 8.07472C20.5778 8.0423 20.5871 8.00706 20.5871 7.97139C20.5871 7.93572 20.5778 7.90047 20.5599 7.86805C20.542 7.83564 20.5158 7.80681 20.4832 7.78355C20.4507 7.76029 20.4124 7.74314 20.3711 7.73328C20.3298 7.72341 20.2865 7.72106 20.244 7.72639C17.0709 7.72639 14.4879 9.8527 14.4879 12.4864C14.4839 12.5096 14.4839 12.5332 14.4879 12.5564ZM14.5934 45.0539C14.5934 47.599 17.0722 49.6564 20.1385 49.6564C20.1798 49.662 20.2221 49.6602 20.2625 49.6509C20.3028 49.6416 20.3402 49.6252 20.3722 49.6027C20.4041 49.5802 20.4297 49.5523 20.4473 49.5207C20.4649 49.4892 20.474 49.4549 20.474 49.4201C20.474 49.3854 20.4649 49.3511 20.4473 49.3195C20.4297 49.288 20.4041 49.26 20.3722 49.2376C20.3402 49.2151 20.3028 49.1986 20.2625 49.1894C20.2221 49.1801 20.1798 49.1782 20.1385 49.1839C17.384 49.1839 15.1626 47.3402 15.1626 45.0539C15.1695 45.0196 15.1672 44.9845 15.156 44.951C15.1449 44.9175 15.1251 44.8865 15.098 44.86C15.0709 44.8335 15.0372 44.8122 14.9992 44.7976C14.9612 44.783 14.9199 44.7754 14.878 44.7754C14.8361 44.7754 14.7948 44.783 14.7568 44.7976C14.7188 44.8122 14.6851 44.8335 14.658 44.86C14.6309 44.8865 14.6111 44.9175 14.6 44.951C14.5888 44.9845 14.5865 45.0196 14.5934 45.0539ZM16.2801 12.5389C16.2885 12.6062 16.3288 12.668 16.392 12.7106C16.4553 12.7533 16.5364 12.7733 16.6175 12.7664C16.6985 12.7594 16.773 12.726 16.8244 12.6735C16.8758 12.621 16.8999 12.5537 16.8916 12.4864C16.8916 10.9531 18.3966 9.72139 20.244 9.72139C20.285 9.72255 20.3259 9.71684 20.3642 9.70461C20.4025 9.69238 20.4374 9.67387 20.4669 9.65019C20.4965 9.62651 20.5199 9.59815 20.536 9.56679C20.552 9.53543 20.5602 9.50171 20.5602 9.46764C20.5602 9.43357 20.552 9.39985 20.536 9.36849C20.5199 9.33712 20.4965 9.30876 20.4669 9.28508C20.4374 9.26141 20.4025 9.2429 20.3642 9.23067C20.3259 9.21844 20.285 9.21273 20.244 9.21389C18.066 9.21389 16.2801 10.6787 16.2801 12.4864C16.2779 12.5038 16.2779 12.5214 16.2801 12.5389ZM16.3223 45.0539C16.3223 46.8008 18.0339 48.2214 20.1385 48.2214C20.1786 48.2232 20.2188 48.2182 20.2565 48.2067C20.2942 48.1952 20.3286 48.1774 20.3578 48.1545C20.387 48.1316 20.4102 48.104 20.426 48.0733C20.4419 48.0427 20.4501 48.0097 20.4501 47.9764C20.4501 47.9431 20.4419 47.9101 20.426 47.8794C20.4102 47.8488 20.387 47.8212 20.3578 47.7983C20.3286 47.7754 20.2942 47.7576 20.2565 47.7461C20.2188 47.7346 20.1786 47.7296 20.1385 47.7314C18.3534 47.7314 16.9126 46.5356 16.9126 45.0539C16.9148 45.0206 16.9088 44.9873 16.8949 44.956C16.8811 44.9247 16.8597 44.8961 16.8321 44.8719C16.8044 44.8477 16.7712 44.8284 16.7343 44.8153C16.6974 44.8021 16.6576 44.7953 16.6175 44.7953C16.5773 44.7953 16.5376 44.8021 16.5007 44.8153C16.4638 44.8284 16.4305 44.8477 16.4029 44.8719C16.3752 44.8961 16.3539 44.9247 16.34 44.956C16.3261 44.9873 16.3201 45.0206 16.3223 45.0539ZM18.7259 42.9364H19.2741V44.0564C19.2741 45.2236 20.14 46.0202 21.2138 46.1564C25.7112 46.7268 30.4649 46.8583 35.6988 46.1564C36.7719 46.0125 37.6596 45.2236 37.6596 44.0564V42.9364H38.2922V37.4414H37.6596V21.6214H38.2922V16.1264H37.6596V12.6789C37.6596 11.5117 36.7668 10.7607 35.6988 10.5789C30.5462 9.70152 25.7772 9.86581 21.2138 10.5789C20.1438 10.7461 19.2741 11.5117 19.2741 12.6789L19.2741 16.1264H18.7259V21.6214H19.2741V37.4414H18.7259V42.9364ZM19.8434 21.7089C26.0181 20.6828 31.8237 20.6933 37.0693 21.8314L34.012 28.1314H22.9006L19.8434 21.7089ZM19.9066 43.2339L20.012 33.7839L22.2891 33.7314V38.3339L19.9066 43.2339ZM19.9066 23.5464L22.2891 28.4464V33.0489L20.012 32.9789L19.9066 23.5464ZM20.1596 44.7039L23.0903 38.5089H33.8012L36.753 44.5814C31.6982 45.6781 26.1097 45.6927 20.1596 44.7039ZM23.0693 50.4614C23.0823 50.5082 23.1116 50.5508 23.1536 50.5839C25.9738 52.9247 30.5592 52.9247 33.3795 50.5839C33.4072 50.5609 33.4292 50.5336 33.4441 50.5036C33.4591 50.4736 33.4668 50.4414 33.4668 50.4089C33.4668 50.3764 33.4591 50.3442 33.4441 50.3142C33.4292 50.2842 33.4072 50.2569 33.3795 50.2339C33.3518 50.2109 33.3189 50.1927 33.2828 50.1802C33.2466 50.1678 33.2078 50.1614 33.1687 50.1614C33.1295 50.1614 33.0907 50.1678 33.0546 50.1802C33.0184 50.1927 32.9855 50.2109 32.9578 50.2339C30.3635 52.3872 26.1696 52.3872 23.5753 50.2339C23.5317 50.1957 23.4744 50.1701 23.412 50.161C23.3495 50.1518 23.2852 50.1596 23.2285 50.1832C23.1717 50.2067 23.1256 50.2447 23.097 50.2917C23.0683 50.3386 23.0586 50.392 23.0693 50.4439C23.069 50.4497 23.069 50.4556 23.0693 50.4614ZM23.259 6.99139C23.2698 7.03772 23.2958 7.08065 23.3343 7.11536C23.3728 7.15008 23.4222 7.17521 23.4769 7.18793C23.5317 7.20065 23.5896 7.20046 23.6442 7.18739C23.6988 7.1743 23.748 7.14885 23.7861 7.11389C26.4708 4.88565 30.8214 4.88564 33.506 7.11389C33.5304 7.14621 33.5633 7.17355 33.6023 7.19387C33.6412 7.2142 33.6851 7.22697 33.7308 7.23126C33.7765 7.23555 33.8227 7.23123 33.8661 7.21864C33.9095 7.20604 33.9489 7.18549 33.9815 7.1585C34.014 7.13152 34.0387 7.0988 34.0539 7.06278C34.0691 7.02676 34.0743 6.98837 34.0691 6.95045C34.0639 6.91253 34.0485 6.87606 34.0241 6.84377C33.9996 6.81147 33.9666 6.78416 33.9277 6.76389C31.0093 4.34164 26.2829 4.34164 23.3644 6.76389C23.3115 6.7995 23.2744 6.84878 23.259 6.90389C23.2529 6.93283 23.2529 6.96244 23.259 6.99139ZM24.25 49.4814C24.2626 49.5283 24.292 49.571 24.3343 49.6039C26.5026 51.4036 30.0305 51.4036 32.1988 49.6039C32.2547 49.5598 32.2872 49.4991 32.2892 49.4351C32.2912 49.3711 32.2624 49.3091 32.2093 49.2626C32.1562 49.2162 32.083 49.1892 32.0059 49.1876C31.9288 49.1859 31.8541 49.2098 31.7982 49.2539C29.8503 50.8705 26.6827 50.8705 24.7349 49.2539C24.6914 49.2191 24.6357 49.1966 24.5759 49.1894C24.5161 49.1823 24.4551 49.191 24.4015 49.2142C24.3479 49.2374 24.3044 49.274 24.2773 49.3188C24.2501 49.3636 24.2405 49.4143 24.25 49.4639C24.2497 49.4697 24.2497 49.4756 24.25 49.4814ZM24.4819 8.00639C24.4899 8.05417 24.5145 8.09898 24.5527 8.13532C24.591 8.17166 24.6412 8.19795 24.6971 8.21095C24.7531 8.22396 24.8124 8.22312 24.8678 8.20855C24.9232 8.19397 24.9723 8.16628 25.009 8.12889C27.0246 6.456 30.2675 6.45597 32.2831 8.12889C32.3405 8.16883 32.4138 8.1895 32.4886 8.18679C32.5634 8.18408 32.6342 8.1582 32.6872 8.11425C32.7401 8.07032 32.7713 8.01151 32.7746 7.94942C32.7778 7.88734 32.7529 7.82649 32.7048 7.77889C30.4611 5.91659 26.831 5.9166 24.5873 7.77889C24.5296 7.81855 24.492 7.87477 24.4819 7.93639C24.4779 7.95961 24.4779 7.98317 24.4819 8.00639ZM25.4729 48.4489C25.4818 48.5019 25.5114 48.5511 25.5572 48.5889C27.0455 49.8241 29.4877 49.8241 30.9759 48.5889C31.0318 48.5425 31.0632 48.4795 31.0632 48.4139C31.0632 48.3483 31.0318 48.2853 30.9759 48.2389C30.92 48.1925 30.8441 48.1664 30.765 48.1664C30.686 48.1664 30.6101 48.1925 30.5542 48.2389C29.2918 49.2866 27.2412 49.2866 25.9789 48.2389C25.9375 48.2041 25.8846 48.1803 25.8268 48.1707C25.7691 48.161 25.7092 48.1659 25.6548 48.1847C25.6004 48.2035 25.554 48.2354 25.5216 48.2762C25.4892 48.3171 25.4722 48.365 25.4729 48.4139C25.4719 48.4255 25.4719 48.4372 25.4729 48.4489ZM25.7681 9.09139C25.7817 9.13634 25.8099 9.17735 25.8496 9.20995C25.8893 9.24255 25.939 9.2655 25.9933 9.27631C26.0476 9.28713 26.1045 9.2854 26.1577 9.27132C26.2109 9.25723 26.2584 9.23131 26.2952 9.19639C27.6014 8.11223 29.6908 8.11223 30.997 9.19639C31.0557 9.24512 31.1353 9.2725 31.2184 9.2725C31.3014 9.2725 31.381 9.24512 31.4397 9.19639C31.4985 9.14766 31.5314 9.08156 31.5314 9.01264C31.5314 8.94372 31.4985 8.87762 31.4397 8.82889C29.8997 7.55067 27.3925 7.55069 25.8524 8.82889C25.7983 8.87608 25.7681 8.93874 25.7681 9.00389C25.762 9.03284 25.762 9.06244 25.7681 9.09139ZM34.6657 38.3339V33.7314L36.9428 33.7839L37.0482 43.2339L34.6657 38.3339ZM34.6657 33.0489V28.4464L37.0482 23.5464L36.9428 32.9789L34.6657 33.0489ZM36.0361 50.8639C36.0509 50.9194 36.0883 50.9689 36.1422 51.004C36.196 51.0391 36.2629 51.0576 36.3313 51.0564C40.3197 51.0564 43.5632 48.3643 43.5632 45.0539C43.5654 45.0206 43.5594 44.9873 43.5455 44.956C43.5317 44.9247 43.5103 44.8961 43.4827 44.8719C43.455 44.8477 43.4218 44.8284 43.3849 44.8153C43.348 44.8021 43.3082 44.7953 43.2681 44.7953C43.2279 44.7953 43.1882 44.8021 43.1513 44.8153C43.1144 44.8284 43.0811 44.8477 43.0535 44.8719C43.0258 44.8961 43.0045 44.9247 42.9906 44.956C42.9767 44.9873 42.9707 45.0206 42.9729 45.0539C42.9729 48.0991 40.0003 50.5664 36.3313 50.5664C36.2907 50.5664 36.2506 50.5733 36.2133 50.5867C36.1761 50.6001 36.1426 50.6197 36.1149 50.6443C36.0872 50.669 36.0659 50.6981 36.0524 50.7298C36.0388 50.7616 36.0333 50.7953 36.0361 50.8289C36.0351 50.8405 36.0351 50.8522 36.0361 50.8639ZM36.0361 49.4814C36.0538 49.5342 36.0927 49.5804 36.1464 49.6122C36.2002 49.6441 36.2654 49.6597 36.3313 49.6564C39.3977 49.6564 41.8765 47.599 41.8765 45.0539C41.8833 45.0196 41.8811 44.9845 41.8699 44.951C41.8587 44.9175 41.8389 44.8865 41.8118 44.86C41.7848 44.8335 41.751 44.8122 41.7131 44.7976C41.6751 44.783 41.6337 44.7754 41.5919 44.7754C41.55 44.7754 41.5086 44.783 41.4707 44.7976C41.4327 44.8122 41.399 44.8335 41.3719 44.86C41.3448 44.8865 41.325 44.9175 41.3138 44.951C41.3027 44.9845 41.3004 45.0196 41.3072 45.0539C41.3072 47.3402 39.0858 49.1839 36.3313 49.1839C36.2904 49.1829 36.2497 49.1892 36.212 49.2023C36.1742 49.2154 36.1403 49.235 36.1124 49.2599C36.0845 49.2847 36.0632 49.3142 36.0501 49.3463C36.0369 49.3785 36.0322 49.4126 36.0361 49.4464C36.0351 49.458 36.0351 49.4697 36.0361 49.4814ZM36.0361 48.0289C36.0509 48.0844 36.0883 48.1339 36.1422 48.169C36.196 48.2041 36.2629 48.2226 36.3313 48.2214C38.436 48.2214 40.1476 46.8008 40.1476 45.0539C40.1497 45.0206 40.1437 44.9873 40.1299 44.956C40.116 44.9247 40.0946 44.8961 40.067 44.8719C40.0394 44.8477 40.0061 44.8284 39.9692 44.8153C39.9323 44.8021 39.8926 44.7953 39.8524 44.7953C39.8122 44.7953 39.7725 44.8021 39.7356 44.8153C39.6987 44.8284 39.6654 44.8477 39.6378 44.8719C39.6102 44.8961 39.5888 44.9247 39.5749 44.956C39.5611 44.9873 39.555 45.0206 39.5572 45.0539C39.5572 46.5356 38.1165 47.7314 36.3313 47.7314C36.2888 47.7311 36.2466 47.7384 36.2078 47.7529C36.1689 47.7673 36.1343 47.7886 36.1063 47.8152C36.0783 47.8418 36.0575 47.8731 36.0454 47.9069C36.0333 47.9408 36.0301 47.9764 36.0361 48.0114C36.0359 48.0172 36.0359 48.0231 36.0361 48.0289ZM36.6897 9.52889C36.7062 9.58364 36.7441 9.63228 36.7976 9.66714C36.851 9.702 36.917 9.72108 36.9849 9.72139C38.8323 9.72139 40.3373 10.9531 40.3373 12.4864C40.3359 12.5204 40.3428 12.5544 40.3576 12.5862C40.3723 12.618 40.3946 12.647 40.4231 12.6715C40.4516 12.696 40.4858 12.7154 40.5236 12.7287C40.5614 12.742 40.602 12.7489 40.6431 12.7489C40.6841 12.7489 40.7247 12.742 40.7625 12.7287C40.8003 12.7154 40.8345 12.696 40.863 12.6715C40.8915 12.647 40.9138 12.618 40.9286 12.5862C40.9433 12.5544 40.9502 12.5204 40.9488 12.4864C40.9488 10.6787 39.1629 9.21389 36.9849 9.21389C36.914 9.21507 36.8458 9.23666 36.792 9.27496C36.7381 9.31327 36.702 9.36591 36.6897 9.42389C36.6809 9.45851 36.6809 9.49427 36.6897 9.52889ZM36.6897 8.04139C36.709 8.09341 36.7483 8.13874 36.8016 8.17037C36.855 8.202 36.9194 8.21817 36.9849 8.21639C39.8354 8.21639 42.1506 10.1205 42.1506 12.4864C42.1442 12.5217 42.147 12.5577 42.1589 12.5919C42.1708 12.6262 42.1914 12.658 42.2195 12.685C42.2475 12.712 42.2822 12.7337 42.3213 12.7486C42.3603 12.7635 42.4028 12.7712 42.4458 12.7712C42.4887 12.7712 42.5312 12.7635 42.5703 12.7486C42.6093 12.7337 42.6441 12.712 42.6721 12.685C42.7001 12.658 42.7208 12.6262 42.7327 12.5919C42.7445 12.5577 42.7474 12.5217 42.741 12.4864C42.741 9.8527 40.158 7.72639 36.9849 7.72639C36.9136 7.72636 36.8446 7.74752 36.7905 7.78604C36.7364 7.82456 36.7006 7.87789 36.6897 7.93639C36.6807 7.97099 36.6807 8.00679 36.6897 8.04139ZM36.6897 6.60639C36.71 6.65788 36.7496 6.70264 36.8027 6.73412C36.8558 6.76561 36.9197 6.78217 36.9849 6.78139C40.7816 6.78139 43.8584 9.33518 43.8584 12.4864C43.857 12.5204 43.8639 12.5544 43.8786 12.5862C43.8934 12.618 43.9157 12.647 43.9442 12.6715C43.9727 12.696 44.0069 12.7154 44.0447 12.7287C44.0825 12.742 44.1231 12.7489 44.1641 12.7489C44.2052 12.7489 44.2458 12.742 44.2836 12.7287C44.3214 12.7154 44.3556 12.696 44.3841 12.6715C44.4126 12.647 44.4349 12.618 44.4496 12.5862C44.4644 12.5544 44.4713 12.5204 44.4699 12.4864C44.4699 9.06077 41.1122 6.27389 36.9849 6.27389C36.9109 6.27571 36.8401 6.29978 36.7859 6.34162C36.7316 6.38346 36.6974 6.44023 36.6897 6.50139C36.6809 6.53601 36.6809 6.57177 36.6897 6.60639Z" fill="black"/>
</svg>
