<svg width="48" height="49" viewBox="0 0 48 49" fill="none" xmlns="http://www.w3.org/2000/svg">
<path d="M47.4526 35.9522C46.0206 35.8424 44.6255 36.1893 43.4427 36.9407C43.0223 37.2084 42.6421 37.5373 42.2747 37.8548C41.7013 38.35 41.1594 38.8182 40.5261 39.0126C39.5992 39.2959 38.5819 39.2599 37.6765 38.9106C37.2011 38.7269 36.7664 38.4436 36.4038 38.1897C36.2116 38.0553 36.0183 37.9167 35.8227 37.7726C35.1608 37.284 34.4763 36.7799 33.6901 36.4924C33.1764 36.3057 32.6402 36.1959 32.0959 36.1665C31.5167 36.1365 30.9323 36.1965 30.3799 36.3465C30.0986 36.4222 29.8227 36.5212 29.5338 36.649C28.7202 37.011 27.9894 37.5313 27.2825 38.0361L27.2141 38.0853C26.1791 38.823 25.0633 39.1573 23.9077 39.0888C22.8708 39.021 22.03 38.4538 21.1395 37.8542C20.6253 37.5079 20.103 37.1562 19.5219 36.8783C19.1393 36.6947 18.7337 36.5548 18.3157 36.4624C16.5054 36.0681 14.4406 36.6064 12.484 37.9905C11.3576 38.7887 10.1361 39.2095 8.95091 39.2095C8.28849 39.2095 7.66433 39.0762 7.09374 38.8146C6.5155 38.5481 5.98891 38.1063 5.43219 37.6388C4.57942 36.9197 3.71468 36.1905 2.61368 36.0212C1.94265 35.918 1.23096 35.924 0.514498 36.0416C0.383448 36.0632 0.266747 36.1467 0.186874 36.2775C0.107001 36.4084 0.0725648 36.5692 0.089783 36.7325C0.124219 37.0668 0.366708 37.3105 0.641242 37.2654C0.975561 37.2102 1.31132 37.1826 1.63894 37.1826C1.92782 37.1826 2.21479 37.2036 2.49315 37.2468C3.35932 37.3801 4.09109 37.9959 4.86495 38.6483C5.45802 39.1465 6.06161 39.6542 6.75321 39.9723C7.42806 40.2832 8.1651 40.4411 8.9447 40.4411C10.3045 40.4411 11.6953 39.9657 12.9661 39.066C13.9294 38.3842 15.4283 37.5715 17.1042 37.5715C17.417 37.5715 17.7279 37.6004 18.0268 37.6586C18.4381 37.7384 18.8126 37.8602 19.1708 38.0313C19.6917 38.2804 20.1638 38.5979 20.6631 38.9346C21.6182 39.5792 22.5977 40.2388 23.8547 40.3228C25.1996 40.4063 26.4924 40.0185 27.6991 39.1585L27.7689 39.1092C28.1118 38.8644 28.4481 38.6243 28.7872 38.4064C29.4644 37.9695 30.0192 37.7072 30.586 37.5535C31.3192 37.3543 32.073 37.3411 32.821 37.5097C32.998 37.5505 33.207 37.6022 33.4141 37.6778C34.0842 37.9233 34.6858 38.3668 35.3229 38.8368C35.5687 39.0174 35.8194 39.1981 36.0757 39.3721C36.4172 39.6038 36.8749 39.8949 37.3857 40.0906C38.471 40.5089 39.6466 40.5533 40.7581 40.2124C41.5664 39.9651 42.2092 39.4099 42.8315 38.8746C43.1715 38.5805 43.5211 38.2768 43.887 38.0433C44.9134 37.3903 46.1402 37.092 47.3904 37.1856L47.4378 37.188C47.697 37.188 47.8965 36.9443 47.9127 36.6082C47.9209 36.4438 47.8773 36.2853 47.7903 36.1617C47.7047 36.0356 47.5841 35.9624 47.4526 35.9522Z" fill="black"/>
<path d="M42.2746 23.4502C41.7012 23.9453 41.1593 24.4135 40.526 24.608C39.8229 24.8222 39.0682 24.8516 38.3489 24.7016V25.95C39.1481 26.0922 39.9698 26.0484 40.7589 25.8066C41.5672 25.5593 42.21 25.0041 42.8323 24.4687C43.1724 24.1746 43.522 23.8709 43.8879 23.6374C44.9143 22.9844 46.141 22.6861 47.3913 22.7798L47.4386 22.7822C47.6979 22.7822 47.8973 22.5385 47.9136 22.2024C47.9217 22.0379 47.8782 21.8795 47.7911 21.7558C47.7041 21.6316 47.5835 21.5584 47.4525 21.5476C46.0205 21.4377 44.6254 21.7846 43.4426 22.5361C43.0226 22.8038 42.6424 23.1327 42.2746 23.4502Z" fill="black"/>
<path d="M0.642199 22.8589C0.976518 22.8037 1.31227 22.7761 1.63989 22.7761C1.92878 22.7761 2.21575 22.7971 2.49411 22.8403C3.36028 22.9736 4.09205 23.5894 4.86591 24.2418C5.45898 24.74 6.06257 25.2477 6.75416 25.5658C7.42902 25.8767 8.16605 26.0346 8.94565 26.0346C9.25941 26.0346 9.57507 26.0064 9.89122 25.956V24.7147C9.57699 24.7724 9.26275 24.803 8.95091 24.803C8.28849 24.803 7.66433 24.6697 7.09374 24.408C6.5155 24.1416 5.98891 23.6998 5.43219 23.2323C4.57942 22.5132 3.71468 21.784 2.61368 21.6147C1.94265 21.5115 1.23096 21.5175 0.514498 21.6351C0.383448 21.6567 0.266747 21.7402 0.186874 21.871C0.107001 22.0019 0.0725648 22.1627 0.089783 22.326C0.125176 22.6603 0.367665 22.904 0.642199 22.8589Z" fill="black"/>
<path d="M34.0175 20.1953C30.9388 18.7902 23.248 15.1584 22.8018 15.0384C22.7673 15.0294 22.7319 15.0246 22.6951 15.0246C21.6797 15.0246 19.8044 18.4205 18.8674 19.6851L34.546 26.9721C34.4853 24.5893 34.8722 20.5848 34.0175 20.1953ZM33.6038 24.8294C33.6009 24.9711 33.598 25.1115 33.5956 25.2502L20.4778 19.154C21.0489 18.2783 22.1767 16.5533 22.6918 16.2496C23.4044 16.5437 26.5262 17.9974 29.0682 19.181C30.7695 19.9732 32.3822 20.7241 33.5014 21.2366C33.6636 21.8704 33.6267 23.7022 33.6038 24.8294Z" fill="black"/>
<path d="M17.1272 22.7311C16.9301 22.6411 16.7283 22.5984 16.5303 22.5984C15.8176 22.5984 15.1485 23.1488 14.8902 24.0365C14.5593 25.1703 15.0251 26.4247 15.9319 26.8394C16.129 26.9295 16.3308 26.9721 16.5293 26.9721C17.2419 26.9721 17.912 26.4211 18.1703 25.534C18.4998 24.4002 18.034 23.1452 17.1272 22.7311ZM17.2711 25.1223C17.1578 25.5106 16.8598 25.7717 16.5288 25.7717C16.437 25.7717 16.3461 25.7513 16.2586 25.7117C16.0596 25.621 15.9013 25.4392 15.8128 25.1997C15.7248 24.962 15.7157 24.6961 15.788 24.4489C15.9008 24.0605 16.1993 23.7994 16.5298 23.7994C16.6211 23.7994 16.7125 23.8198 16.7995 23.8595C16.998 23.9501 17.1563 24.132 17.2448 24.3708C17.3338 24.6085 17.3429 24.8756 17.2711 25.1223Z" fill="black"/>
<path d="M35.9317 15.4387C36.1938 15.572 36.5009 15.4009 36.6018 15.0786L38.3093 9.73684C38.3619 9.57599 38.36 9.39953 38.3069 9.23988C38.2514 9.07902 38.1524 8.95658 38.0242 8.89116C37.964 8.86115 37.8999 8.84615 37.8367 8.84555C37.6225 8.84315 37.4331 9.0028 37.3513 9.25128L35.6452 14.5936C35.6161 14.6831 35.6036 14.7779 35.6084 14.8745C35.6204 15.1224 35.7481 15.3457 35.9317 15.4387Z" fill="black"/>
<path d="M39.3681 19.2602C39.3719 19.3496 39.3891 19.4366 39.4216 19.5165C39.5465 19.8268 39.8645 19.9612 40.1137 19.8022L44.2001 17.2111C44.4551 17.0496 44.5584 16.6577 44.4292 16.3366C44.3408 16.1199 44.1667 15.9813 43.973 15.9807C43.8897 15.9795 43.8108 16.0029 43.7376 16.0497L39.6503 18.642C39.4675 18.7596 39.3561 19.0015 39.3681 19.2602Z" fill="black"/>
<path d="M37.7132 16.5977C37.7166 16.7663 37.7702 16.9272 37.8658 17.0448C38.0633 17.2885 38.401 17.2873 38.5947 17.0406L41.8131 12.9467C42.014 12.6922 42.0116 12.2793 41.8093 12.0284C41.7126 11.9107 41.5859 11.8423 41.4505 11.8423C41.3109 11.8405 41.1794 11.9095 41.0804 12.035L37.8615 16.1265C37.7635 16.2532 37.7104 16.42 37.7132 16.5977Z" fill="black"/>
<path d="M47.4526 28.1497C46.0206 28.0398 44.6255 28.3867 43.4427 29.1382C43.0223 29.4059 42.6421 29.7348 42.2747 30.0523C41.7013 30.5475 41.1594 31.0156 40.5261 31.2101C39.8824 31.4063 39.198 31.4327 38.5351 31.3211C38.5355 31.3151 38.5365 31.3085 38.5365 31.3025C38.5365 31.2773 38.5379 31.2503 38.5379 31.2251C38.536 31.075 38.5264 30.9268 38.5078 30.7821C38.5016 30.7257 38.4939 30.6693 38.4844 30.6147C38.4657 30.5036 38.4423 30.3974 38.416 30.29C38.3949 30.2083 38.371 30.1273 38.3452 30.0499C38.327 29.9959 38.3079 29.9419 38.2873 29.8884C38.2476 29.7834 38.205 29.6796 38.1577 29.5781C38.1089 29.4713 38.0549 29.3669 37.9984 29.2654C37.9841 29.2402 37.9683 29.2144 37.9525 29.1892C37.8052 28.9401 37.6373 28.7067 37.4551 28.4918C37.3178 28.3243 37.1758 28.1587 37.0246 27.999C37.0132 27.6017 37.0046 27.2152 36.9959 26.8286C36.9897 26.5219 36.984 26.211 36.9763 25.9025C36.95 24.6127 36.9314 23.3433 36.9056 21.9911C36.8754 20.3735 36.9371 18.9913 35.597 18.274L29.0986 15.3061L28.8178 15.1788C28.8178 15.1788 22.3289 12.2156 22.3194 12.212C22.1467 12.1274 21.9774 12.0896 21.8119 12.0896C20.9352 12.0896 20.1671 13.1604 19.532 14.06C18.8164 15.0732 18.1497 16.0299 17.4663 16.9968C17.3022 17.2279 17.1377 17.4584 16.976 17.6888C16.7704 17.9787 16.5647 18.2674 16.3523 18.5627C16.1534 18.5627 15.9597 18.5747 15.7684 18.5921C14.9352 18.6714 14.0953 18.9901 13.5333 19.8111C13.5204 19.8297 13.507 19.8507 13.4946 19.8706C13.4123 19.9966 13.3372 20.131 13.2679 20.2787C13.2588 20.2979 13.2478 20.3129 13.2382 20.3327C13.144 20.5374 13.0656 20.7817 12.9905 21.0409C12.9776 21.0824 12.9651 21.125 12.9522 21.167C12.9518 21.1706 12.9508 21.1748 12.9494 21.1778C12.8245 21.5973 12.7112 22.0367 12.5897 22.4772C12.5897 22.4772 10.5881 29.3483 10.5929 29.3507L12.462 30.2035C12.4696 30.1981 12.4768 30.1939 12.4845 30.1891C11.3581 30.9874 10.1366 31.4081 8.9514 31.4081C8.28898 31.4081 7.66482 31.2749 7.09423 31.0132C6.51599 30.7467 5.9894 30.305 5.43268 29.8374C4.5799 29.1184 3.71517 28.3892 2.61417 28.2199C1.94314 28.1167 1.23145 28.1227 0.514985 28.2403C0.383936 28.2619 0.267236 28.3453 0.187363 28.4762C0.107489 28.607 0.0730531 28.7679 0.0902713 28.9311C0.124708 29.2654 0.367196 29.5091 0.64173 29.4641C0.976049 29.4089 1.3118 29.3813 1.63943 29.3813C1.92831 29.3813 2.21528 29.4023 2.49364 29.4455C3.35981 29.5787 4.09158 30.1945 4.86544 30.847C5.45851 31.3451 6.0621 31.8529 6.7537 32.171C7.42855 32.4819 8.16558 32.6397 8.94518 32.6397C10.3049 32.6397 11.6958 32.1644 12.9666 31.2647C13.9298 30.5829 15.4288 29.7702 17.1047 29.7702C17.4175 29.7702 17.7284 29.799 18.0273 29.8572C18.4386 29.9371 18.8131 30.0589 19.1713 30.23C19.6922 30.479 20.1642 30.7965 20.6636 31.1333C21.6187 31.7779 22.5982 32.4375 23.8551 32.5215C25.2001 32.6049 26.4929 32.2172 27.6996 31.3571L27.7694 31.3079C28.1123 31.063 28.4486 30.8229 28.7877 30.6051C29.4649 30.1681 30.0197 29.9058 30.5865 29.7522C31.3197 29.5529 32.0735 29.5397 32.8215 29.7084C32.9985 29.7492 33.2075 29.8008 33.4146 29.8764C34.0846 30.1219 34.6863 30.5655 35.3234 31.0354C35.5692 31.2161 35.8199 31.3967 36.0762 31.5708C36.4177 31.8025 36.8754 32.0936 37.3862 32.2892C38.4714 32.7076 39.6471 32.752 40.7586 32.4111C41.5669 32.1638 42.2097 31.6086 42.8319 31.0732C43.172 30.7791 43.5216 30.4754 43.8875 30.242C44.9139 29.5889 46.1407 29.2906 47.3909 29.3843L47.4383 29.3867C47.6975 29.3867 47.8969 29.143 47.9132 28.8069C47.9213 28.6424 47.8778 28.484 47.7908 28.3603C47.7047 28.2331 47.5842 28.1599 47.4526 28.1497ZM29.5338 28.8459C28.7202 29.2078 27.9894 29.7282 27.2825 30.233L27.2141 30.2822C26.1791 31.0198 25.0633 31.3541 23.9078 31.2857C22.8708 31.2179 22.03 30.6507 21.1395 30.0511C20.6253 29.7048 20.103 29.3531 19.5219 29.0752C19.51 29.0692 19.4961 29.065 19.4841 29.0596C19.3359 28.8513 19.2742 28.5572 19.355 28.2775L20.2283 25.2777C20.3202 24.9614 20.5593 24.7664 20.8138 24.7664C20.8845 24.7664 20.9568 24.7814 21.0271 24.8138L29.7064 28.7763C29.7079 28.7757 29.7093 28.7751 29.7108 28.7751C29.6524 28.7991 29.5941 28.8195 29.5338 28.8459ZM36.8649 29.7426C36.6808 29.6142 36.4971 29.4815 36.3101 29.3435C35.6266 28.8393 34.8518 28.2685 33.934 27.933C33.3371 27.7163 32.7153 27.5885 32.0849 27.5543C31.9702 27.5477 31.8544 27.5447 31.7396 27.5447C31.2226 27.5447 30.7094 27.6083 30.2173 27.7313L21.3537 23.6848C21.1801 23.6056 20.9984 23.5654 20.8142 23.5654C20.1528 23.5654 19.5563 24.0881 19.3306 24.8654L18.4625 27.8484C18.0407 27.7625 17.6059 27.7193 17.1678 27.7193C15.7239 27.7193 14.246 28.1713 12.7681 29.0638L11.8177 28.6298C12.2295 27.2104 12.9561 24.7141 13.4941 22.8673L13.6075 22.449C13.6773 22.1921 13.7457 21.9382 13.8174 21.6904L13.8653 21.5877L13.8796 21.4815L13.8801 21.4797L13.8854 21.4635L13.8901 21.4479C13.9313 21.3056 13.9915 21.1046 14.0499 20.9689C14.0623 20.9455 14.0762 20.9191 14.0915 20.8867C14.135 20.7943 14.1814 20.7102 14.2345 20.6292L14.2541 20.5986L14.2589 20.5914C14.5765 20.1268 15.1083 19.8567 15.8382 19.7877C16.0285 19.7703 16.1969 19.7613 16.3519 19.7613H16.778L17.0631 19.3646C17.2764 19.0669 17.484 18.777 17.6925 18.4817C17.8221 18.2974 17.9527 18.1138 18.0832 17.9295L18.1813 17.7915C18.5357 17.2897 18.8863 16.7903 19.2412 16.2844C19.5702 15.8156 19.9031 15.3415 20.2475 14.8535C20.6607 14.2671 21.3523 13.2876 21.811 13.2876C21.8621 13.2876 21.9148 13.3008 21.9932 13.3386C22.0688 13.3734 28.4897 16.3042 28.4916 16.3054L28.7705 16.432L35.2421 19.388C35.85 19.7223 35.9189 20.1412 35.9432 21.7282L35.9485 22.0181C35.96 22.6375 35.971 23.2401 35.981 23.8343C35.993 24.5383 36.0049 25.2309 36.0193 25.9361C36.0265 26.2224 36.0317 26.5117 36.0375 26.7974L36.0389 26.8604L36.0423 27.0099C36.0504 27.3502 36.0576 27.6911 36.0681 28.0404L36.0839 28.5722L36.4077 28.9143C36.5268 29.0404 36.6478 29.1784 36.7994 29.3639C36.9457 29.5361 37.0749 29.7174 37.1978 29.9257L37.214 29.9515C37.2207 29.9635 37.227 29.9755 37.2341 29.9881C37.1045 29.9076 36.9802 29.8236 36.8649 29.7426Z" fill="black"/>
</svg>
