<svg width="48" height="49" viewBox="0 0 48 49" fill="none" xmlns="http://www.w3.org/2000/svg">
<path d="M39.0001 29.2945H34.1513L28.0801 20.3271C27.8781 19.9991 27.595 19.7278 27.2576 19.539C26.9203 19.3501 26.5399 19.2499 26.1526 19.248H9.4013C8.9098 19.248 8.43181 19.4077 8.0404 19.7027C7.64899 19.9976 7.36569 20.4117 7.2338 20.8815L4.53005 29.8117C4.50929 29.8856 4.49919 29.962 4.50005 30.0387V38.2247C4.50005 38.4221 4.57907 38.6114 4.71972 38.751C4.86037 38.8905 5.05114 38.9689 5.25005 38.9689H8.2688C8.34873 40.2943 8.93567 41.5393 9.9097 42.4497C10.8837 43.3601 12.1713 43.867 13.5094 43.867C14.8475 43.867 16.1351 43.3601 17.1092 42.4497C18.0832 41.5393 18.6701 40.2943 18.7501 38.9689H28.5376C28.6486 40.2697 29.2479 41.4817 30.2167 42.3649C31.1855 43.2482 32.4532 43.7383 33.7688 43.7383C35.0844 43.7383 36.3521 43.2482 37.3209 42.3649C38.2897 41.4817 38.889 40.2697 39.0001 38.9689H42.7501C42.949 38.9689 43.1397 38.8905 43.2804 38.751C43.421 38.6114 43.5001 38.4221 43.5001 38.2247V33.7596C43.5001 32.5754 43.0259 31.4397 42.182 30.6023C41.3381 29.7649 40.1935 29.2945 39.0001 29.2945ZM13.5001 42.3178C12.5055 42.3178 11.5517 41.9257 10.8484 41.2279C10.1451 40.5301 9.75005 39.5837 9.75005 38.5968C9.75005 38.4926 9.75005 38.3922 9.75005 38.288C9.83416 37.3578 10.2653 36.4924 10.959 35.8612C11.6527 35.23 12.5589 34.8786 13.5001 34.8759C13.6201 34.8759 13.7401 34.8759 13.8751 34.8759C14.7477 34.965 15.5619 35.3528 16.1778 35.9727C16.7936 36.5927 17.1728 37.406 17.2501 38.2731C17.2501 38.3736 17.2501 38.474 17.2501 38.5782C17.2525 39.0684 17.1573 39.5543 16.97 40.0079C16.7827 40.4615 16.5068 40.8739 16.1584 41.2213C15.8099 41.5688 15.3957 41.8446 14.9395 42.0327C14.4833 42.2209 13.9941 42.3178 13.5001 42.3178ZM33.7501 42.3178C32.7555 42.3178 31.8017 41.9257 31.0984 41.2279C30.3951 40.5301 30.0001 39.5837 30.0001 38.5968C30.0001 38.4926 30.0001 38.3922 30.0001 38.288C30.0842 37.3578 30.5153 36.4924 31.209 35.8612C31.9027 35.23 32.8089 34.8786 33.7501 34.8759C33.8701 34.8759 33.9901 34.8759 34.1251 34.8759C34.9977 34.965 35.8119 35.3528 36.4278 35.9727C37.0436 36.5927 37.4228 37.406 37.5001 38.2731C37.5001 38.3736 37.5001 38.474 37.5001 38.5782C37.5025 39.0684 37.4074 39.5543 37.22 40.0079C37.0327 40.4615 36.7568 40.8739 36.4084 41.2213C36.0599 41.5688 35.6457 41.8446 35.1895 42.0327C34.7333 42.2209 34.2441 42.3178 33.7501 42.3178ZM42.0001 37.4805H38.8801L38.8351 37.3205C38.8351 37.2536 38.8013 37.1866 38.7826 37.1233C38.7638 37.0601 38.7263 36.9485 38.6963 36.8629L38.6288 36.6843C38.5913 36.5912 38.5501 36.5057 38.5088 36.4201C38.4676 36.3345 38.4638 36.3122 38.4376 36.2601C38.4113 36.208 38.3251 36.0592 38.2651 35.9587C38.2485 35.9252 38.2298 35.8929 38.2088 35.8619C38.1301 35.7317 38.0401 35.6052 37.9501 35.4898L37.8751 35.4005C37.8038 35.3112 37.7326 35.2219 37.6576 35.1401L37.5376 35.0173L37.3351 34.8126L37.1926 34.6898C37.1251 34.6303 37.0576 34.5708 36.9826 34.515L36.8288 34.3996L36.6113 34.2508L36.4388 34.1317C36.3638 34.0833 36.2888 34.0424 36.2101 34.0015C36.1313 33.9605 36.0938 33.9382 36.0338 33.9085L35.7901 33.8005L35.6063 33.7261C35.5238 33.6926 35.4376 33.6629 35.3513 33.6368L35.1638 33.5773L34.8751 33.5178L34.6913 33.4768C34.5901 33.4768 34.4851 33.4433 34.3801 33.4322L34.2226 33.4098C34.0701 33.395 33.9126 33.3875 33.7501 33.3875C33.5876 33.3875 33.4263 33.395 33.2663 33.4098L33.1088 33.4322C33.0038 33.4322 32.8988 33.4582 32.7976 33.4768L32.6138 33.5178L32.3363 33.5847L32.1488 33.6443L31.8938 33.7298L31.7063 33.808L31.4701 33.9159L31.2863 34.0089C31.2113 34.0498 31.1363 34.0908 31.0651 34.1354C30.9938 34.1801 30.9451 34.2061 30.8851 34.2471L30.6826 34.3847L30.5101 34.5112L30.3226 34.6675C30.2701 34.7159 30.2138 34.7605 30.1613 34.8126C30.1088 34.8647 30.0451 34.9243 29.9926 34.9801L29.8388 35.1364C29.7863 35.1959 29.7376 35.2592 29.6888 35.3187C29.6401 35.3782 29.5913 35.4303 29.5463 35.4898C29.5013 35.5494 29.4601 35.6126 29.4188 35.6722C29.3288 35.8024 29.2501 35.9326 29.1713 36.0666C29.1376 36.1261 29.1001 36.1857 29.0701 36.2489C29.0401 36.3122 28.9988 36.3978 28.9651 36.4722L28.8751 36.6694C28.8451 36.7438 28.8188 36.8182 28.7926 36.8964L28.7213 37.1085C28.6988 37.1829 28.6801 37.261 28.6613 37.3354C28.6426 37.4098 28.6313 37.4322 28.6201 37.4805H18.6301L18.5851 37.3205C18.5663 37.2536 18.5513 37.1866 18.5326 37.1233C18.5138 37.0601 18.4763 36.9485 18.4463 36.8629L18.3751 36.6843C18.3376 36.5912 18.2963 36.5057 18.2551 36.4201C18.2138 36.3345 18.2101 36.3122 18.1838 36.2601C18.1576 36.208 18.0713 36.0592 18.0113 35.9587C17.9948 35.9252 17.976 35.8929 17.9551 35.8619C17.8763 35.7317 17.7863 35.6052 17.6963 35.4898L17.6213 35.4005C17.5501 35.3112 17.4788 35.2219 17.4038 35.1401L17.2838 35.0173L17.0813 34.8126L16.9388 34.6898C16.8713 34.6303 16.8038 34.5708 16.7288 34.515L16.5751 34.3996L16.3576 34.2508L16.1888 34.1317C16.1138 34.0833 16.0388 34.0424 15.9601 34.0015C15.8813 33.9605 15.8438 33.9382 15.7838 33.9085L15.5401 33.8005L15.3563 33.7261C15.2738 33.6926 15.1876 33.6629 15.1013 33.6368L14.9138 33.5773L14.6251 33.5178L14.4413 33.4768C14.3401 33.4768 14.2351 33.4433 14.1301 33.4322L13.9726 33.4098C13.8176 33.395 13.6601 33.3875 13.5001 33.3875C13.3401 33.3875 13.1788 33.395 13.0163 33.4098L12.8588 33.4322C12.7538 33.4322 12.6488 33.4582 12.5476 33.4768L12.3638 33.5178L12.0863 33.5847L11.8988 33.6443L11.6438 33.7298L11.4563 33.808L11.2201 33.9159L11.0363 34.0089C10.9613 34.0498 10.8863 34.0908 10.8151 34.1354C10.7438 34.1801 10.6951 34.2061 10.6351 34.2471L10.4326 34.3847L10.2601 34.5112L10.0726 34.6675C10.0201 34.7159 9.9638 34.7605 9.9113 34.8126C9.8588 34.8647 9.79505 34.9243 9.74255 34.9801L9.5888 35.1364C9.5363 35.1959 9.48755 35.2592 9.4388 35.3187C9.39005 35.3782 9.3413 35.4303 9.2963 35.4898C9.2513 35.5494 9.21005 35.6126 9.1688 35.6722C9.0788 35.8024 9.00005 35.9326 8.9213 36.0666C8.88755 36.1261 8.85005 36.1857 8.82005 36.2489C8.79005 36.3122 8.7488 36.3978 8.71505 36.4722L8.62505 36.6694C8.59505 36.7438 8.5688 36.8182 8.54255 36.8964C8.5163 36.9745 8.4938 37.0378 8.4713 37.1085C8.4488 37.1791 8.43005 37.261 8.4113 37.3354C8.39255 37.4098 8.3813 37.4322 8.37005 37.4805H6.00005V30.1466L8.67755 21.2908C8.71972 21.1321 8.81354 20.9917 8.94443 20.8915C9.07533 20.7912 9.23594 20.7367 9.4013 20.7364H26.1526C26.288 20.7399 26.4203 20.778 26.5366 20.8471C26.6529 20.9162 26.7492 21.0139 26.8163 21.1308L33.1276 30.4554C33.1964 30.5564 33.2891 30.6391 33.3976 30.6962C33.5062 30.7533 33.6272 30.7831 33.7501 30.7829H39.0001C39.7957 30.7829 40.5588 31.0965 41.1214 31.6547C41.684 32.213 42.0001 32.9701 42.0001 33.7596V37.4805Z" fill="black"/>
<path d="M18 22.9689H11.25C11.0877 22.9689 10.9298 23.0212 10.8 23.1178C10.6702 23.2144 10.5754 23.3502 10.53 23.5047L8.655 29.8303C8.6224 29.9412 8.61627 30.0582 8.6371 30.1718C8.65793 30.2855 8.70514 30.3928 8.775 30.4852C8.84486 30.5776 8.93545 30.6527 9.03959 30.7043C9.14373 30.756 9.25857 30.7829 9.375 30.7829H18C18.1989 30.7829 18.3897 30.7045 18.5303 30.5649C18.671 30.4254 18.75 30.2361 18.75 30.0387V23.7131C18.75 23.5157 18.671 23.3265 18.5303 23.1869C18.3897 23.0473 18.1989 22.9689 18 22.9689ZM17.25 29.2945H10.3762L11.8125 24.4573H17.25V29.2945Z" fill="black"/>
<path d="M26.1637 23.3634C26.0997 23.244 26.004 23.1442 25.8871 23.0747C25.7701 23.0052 25.6363 22.9686 25.5 22.9689H21C20.8011 22.9689 20.6103 23.0473 20.4697 23.1869C20.329 23.3265 20.25 23.5158 20.25 23.7131V30.0387C20.25 30.2361 20.329 30.4254 20.4697 30.5649C20.6103 30.7045 20.8011 30.7829 21 30.7829H28.875C29.0046 30.7832 29.1321 30.7502 29.245 30.687C29.3579 30.6238 29.4524 30.5327 29.5193 30.4225C29.5861 30.3124 29.6231 30.1869 29.6265 30.0583C29.6299 29.9297 29.5997 29.8025 29.5387 29.6889L26.1637 23.3634ZM21.75 29.2945V24.4573H25.05L27.63 29.2945H21.75Z" fill="black"/>
<path d="M22.2226 10.2657C22.3112 10.2994 22.4052 10.317 22.5001 10.3178C22.6504 10.3179 22.7971 10.2733 22.9215 10.1897C23.0459 10.1061 23.1421 9.98739 23.1976 9.84892L24.6976 6.12799C24.7341 6.03711 24.7521 5.93999 24.7507 5.84218C24.7494 5.74437 24.7286 5.6478 24.6896 5.55796C24.6506 5.46813 24.5941 5.38679 24.5234 5.3186C24.4528 5.25042 24.3692 5.19671 24.2776 5.16055C24.186 5.12439 24.0882 5.10649 23.9896 5.10786C23.891 5.10924 23.7937 5.12986 23.7032 5.16856C23.6126 5.20726 23.5307 5.26327 23.4619 5.3334C23.3932 5.40353 23.3391 5.48641 23.3026 5.5773L21.8026 9.29823C21.7661 9.3891 21.748 9.48624 21.7493 9.58407C21.7507 9.6819 21.7714 9.77851 21.8105 9.86837C21.8495 9.95822 21.906 10.0396 21.9767 10.1077C22.0474 10.1759 22.131 10.2296 22.2226 10.2657Z" fill="black"/>
<path d="M26.7226 10.2657C26.8112 10.2994 26.9052 10.317 27.0001 10.3178C27.1504 10.3179 27.2971 10.2733 27.4215 10.1897C27.5459 10.1061 27.6421 9.98739 27.6976 9.84892L29.1976 6.12799C29.2341 6.03711 29.2521 5.93999 29.2507 5.84218C29.2494 5.74437 29.2286 5.6478 29.1896 5.55796C29.1506 5.46813 29.0941 5.38679 29.0234 5.3186C28.9528 5.25042 28.8692 5.19671 28.7776 5.16055C28.686 5.12439 28.5882 5.10649 28.4896 5.10786C28.391 5.10924 28.2937 5.12986 28.2032 5.16856C28.1126 5.20726 28.0307 5.26327 27.9619 5.3334C27.8932 5.40353 27.8391 5.48641 27.8026 5.5773L26.3026 9.29823C26.2661 9.3891 26.248 9.48624 26.2493 9.58407C26.2507 9.6819 26.2714 9.77851 26.3105 9.86837C26.3495 9.95822 26.406 10.0396 26.4767 10.1077C26.5474 10.1759 26.631 10.2296 26.7226 10.2657Z" fill="black"/>
<path d="M31.2226 10.2657C31.3112 10.2994 31.4052 10.317 31.5001 10.3178C31.6504 10.3179 31.7971 10.2733 31.9215 10.1897C32.0459 10.1061 32.1421 9.98739 32.1976 9.84892L33.6976 6.12799C33.7341 6.03711 33.7521 5.93999 33.7507 5.84218C33.7494 5.74437 33.7286 5.6478 33.6896 5.55796C33.6506 5.46813 33.5941 5.38679 33.5234 5.3186C33.4528 5.25042 33.3692 5.19671 33.2776 5.16055C33.186 5.12439 33.0882 5.10649 32.9896 5.10786C32.891 5.10924 32.7937 5.12986 32.7032 5.16856C32.6126 5.20726 32.5307 5.26327 32.4619 5.3334C32.3932 5.40353 32.3391 5.48641 32.3026 5.5773L30.8026 9.29823C30.7661 9.3891 30.748 9.48624 30.7493 9.58407C30.7507 9.6819 30.7714 9.77851 30.8105 9.86837C30.8495 9.95822 30.906 10.0396 30.9767 10.1077C31.0474 10.1759 31.131 10.2296 31.2226 10.2657Z" fill="black"/>
<path d="M35.7226 10.2657C35.8112 10.2994 35.9052 10.317 36.0001 10.3178C36.1504 10.3179 36.2971 10.2733 36.4215 10.1897C36.5459 10.1061 36.6421 9.98739 36.6976 9.84892L38.1976 6.12799C38.2341 6.03711 38.2521 5.93999 38.2507 5.84218C38.2494 5.74437 38.2286 5.6478 38.1896 5.55796C38.1506 5.46813 38.0941 5.38679 38.0234 5.3186C37.9528 5.25042 37.8692 5.19671 37.7776 5.16055C37.686 5.12439 37.5882 5.10649 37.4896 5.10786C37.391 5.10924 37.2937 5.12986 37.2032 5.16856C37.1126 5.20726 37.0307 5.26327 36.9619 5.3334C36.8932 5.40353 36.8391 5.48641 36.8026 5.5773L35.3026 9.29823C35.2661 9.3891 35.248 9.48624 35.2493 9.58407C35.2507 9.6819 35.2714 9.77851 35.3105 9.86837C35.3495 9.95822 35.406 10.0396 35.4767 10.1077C35.5474 10.1759 35.631 10.2296 35.7226 10.2657Z" fill="black"/>
<path d="M22.2226 17.3354C22.3112 17.3692 22.4052 17.3868 22.5001 17.3875C22.6504 17.3877 22.7971 17.3431 22.9215 17.2595C23.0459 17.1759 23.1421 17.0572 23.1976 16.9187L24.6976 13.1978C24.7712 13.0142 24.7683 12.8092 24.6896 12.6277C24.6108 12.4463 24.4626 12.3033 24.2776 12.2303C24.0927 12.1573 23.886 12.1602 23.7032 12.2383C23.5203 12.3165 23.3762 12.4635 23.3026 12.6471L21.8026 16.368C21.7661 16.4589 21.748 16.556 21.7493 16.6538C21.7507 16.7517 21.7714 16.8483 21.8105 16.9381C21.8495 17.028 21.906 17.1093 21.9767 17.1775C22.0474 17.2457 22.131 17.2993 22.2226 17.3354Z" fill="black"/>
<path d="M26.7226 17.3354C26.8112 17.3692 26.9052 17.3868 27.0001 17.3875C27.1504 17.3877 27.2971 17.3431 27.4215 17.2595C27.5459 17.1759 27.6421 17.0572 27.6976 16.9187L29.1976 13.1978C29.2712 13.0142 29.2683 12.8092 29.1896 12.6277C29.1108 12.4463 28.9626 12.3033 28.7776 12.2303C28.5927 12.1573 28.386 12.1602 28.2032 12.2383C28.0203 12.3165 27.8762 12.4635 27.8026 12.6471L26.3026 16.368C26.2661 16.4589 26.248 16.556 26.2493 16.6538C26.2507 16.7517 26.2714 16.8483 26.3105 16.9381C26.3495 17.028 26.406 17.1093 26.4767 17.1775C26.5474 17.2457 26.631 17.2993 26.7226 17.3354Z" fill="black"/>
<path d="M31.2226 17.3354C31.3112 17.3692 31.4052 17.3868 31.5001 17.3875C31.6504 17.3877 31.7971 17.3431 31.9215 17.2595C32.0459 17.1759 32.1421 17.0572 32.1976 16.9187L33.6976 13.1978C33.7341 13.1069 33.7521 13.0097 33.7507 12.9119C33.7494 12.8141 33.7286 12.7176 33.6896 12.6277C33.6506 12.5379 33.5941 12.4566 33.5234 12.3884C33.4528 12.3202 33.3692 12.2665 33.2776 12.2303C33.186 12.1942 33.0882 12.1763 32.9896 12.1776C32.891 12.179 32.7937 12.1996 32.7032 12.2383C32.6126 12.277 32.5307 12.333 32.4619 12.4032C32.3932 12.4733 32.3391 12.5562 32.3026 12.6471L30.8026 16.368C30.7661 16.4589 30.748 16.556 30.7493 16.6538C30.7507 16.7517 30.7714 16.8483 30.8105 16.9381C30.8495 17.028 30.906 17.1093 30.9767 17.1775C31.0474 17.2457 31.131 17.2993 31.2226 17.3354Z" fill="black"/>
<path d="M35.7226 17.3354C35.8112 17.3692 35.9052 17.3868 36.0001 17.3875C36.1504 17.3877 36.2971 17.3431 36.4215 17.2595C36.5459 17.1759 36.6421 17.0572 36.6976 16.9187L38.1976 13.1978C38.2712 13.0142 38.2683 12.8092 38.1896 12.6277C38.1108 12.4463 37.9626 12.3033 37.7776 12.2303C37.5927 12.1573 37.386 12.1602 37.2032 12.2383C37.0203 12.3165 36.8762 12.4635 36.8026 12.6471L35.3026 16.368C35.2661 16.4589 35.248 16.556 35.2493 16.6538C35.2507 16.7517 35.2714 16.8483 35.3105 16.9381C35.3495 17.028 35.406 17.1093 35.4767 17.1775C35.5474 17.2457 35.631 17.2993 35.7226 17.3354Z" fill="black"/>
</svg>
