<svg width="39" height="39" viewBox="0 0 39 39" fill="none" xmlns="http://www.w3.org/2000/svg">
<g clip-path="url(#clip0_0_563)">
<path d="M35.4211 27.127C33.6731 25.3433 31.0891 24.7617 28.7711 25.6147L23.4131 20.1086L28.8091 14.6025C31.1271 15.4556 33.7111 14.9127 35.4591 13.0903C37.1691 11.3454 37.7771 8.66985 36.9411 6.34332C36.8651 6.14944 36.7131 6.03311 36.5231 5.95556C36.3331 5.91679 36.1431 5.95556 35.9911 6.11066L32.7231 9.44536L30.0251 6.6923L33.2931 3.43515C33.4451 3.28005 33.4831 3.08617 33.4451 2.8923C33.4071 2.69842 33.2551 2.54332 33.0651 2.46577C30.7851 1.61271 28.1631 2.23311 26.4531 3.97801C24.7051 5.76168 24.1351 8.39842 24.9711 10.7637L19.6131 16.2698L14.2171 10.7637C15.0911 8.39842 14.5211 5.80046 12.7731 3.97801C11.0631 2.23311 8.44109 1.61271 6.16109 2.46577C5.97109 2.54332 5.85709 2.69842 5.78109 2.8923C5.70509 3.08617 5.78109 3.28005 5.93308 3.43515L9.20109 6.76985L6.50309 9.52291L3.23508 6.18822C3.08308 6.03311 2.89308 5.99434 2.70308 6.03311C2.51308 6.07189 2.36108 6.22699 2.28508 6.42087C1.44908 8.7474 2.05708 11.4229 3.76708 13.1678C5.51508 14.9515 8.09909 15.5331 10.4171 14.6801L15.8131 20.1086L10.4551 25.6147C8.13709 24.7617 5.55308 25.3045 3.80508 27.127C2.09508 28.8719 1.48708 31.5474 2.32308 33.8739C2.39908 34.0678 2.55108 34.1841 2.74108 34.2617C2.93108 34.3005 3.12108 34.2617 3.27308 34.1066L6.54109 30.7719L9.23909 33.5249L5.93308 36.8209C5.78109 36.976 5.74309 37.1698 5.78109 37.3637C5.81909 37.5576 5.97109 37.7127 6.16109 37.7902C6.84509 38.0229 7.56709 38.178 8.28909 38.178C9.96109 38.178 11.5951 37.5188 12.7731 36.278C14.5211 34.4943 15.0911 31.8576 14.2551 29.4923L19.6131 23.9862L25.0091 29.4923C24.1731 31.8576 24.7051 34.4943 26.4911 36.278C27.7071 37.5188 29.3411 38.178 30.9751 38.178C31.6971 38.178 32.4191 38.0617 33.1031 37.7902C33.2931 37.7127 33.4071 37.5576 33.4831 37.3637C33.5211 37.1698 33.4831 36.976 33.3311 36.8209L30.0631 33.4862L32.7611 30.7331L36.0291 34.0678C36.1811 34.2229 36.3711 34.2617 36.5611 34.2229C36.7511 34.1841 36.9031 34.029 36.9791 33.8351C37.7391 31.5086 37.1691 28.8719 35.4211 27.127ZM10.9871 13.5556C10.8731 13.4392 10.7211 13.4005 10.5691 13.4005C10.4931 13.4005 10.4171 13.4005 10.3411 13.4392C8.36509 14.3311 6.12309 13.8658 4.60308 12.3147C3.42508 11.1127 2.89308 9.36781 3.15908 7.70046L6.12309 10.7249C6.35109 10.9576 6.69309 10.9576 6.92109 10.7249L10.4171 7.1576C10.6451 6.92495 10.6451 6.57597 10.4171 6.34332L7.45309 3.31883C9.08709 3.0474 10.7591 3.59026 11.9751 4.7923C13.4951 6.34332 13.9131 8.63107 13.0771 10.6474C13.0011 10.8801 13.0391 11.1127 13.1911 11.3066L18.8531 17.0841L16.6871 19.2943L10.9871 13.5556ZM13.0391 29.5698C13.9131 31.5862 13.4571 33.8739 11.9371 35.4249C10.7591 36.627 9.04909 37.1698 7.41509 36.8984L10.3791 33.8739C10.6071 33.6413 10.6071 33.2923 10.3791 33.0596L6.88309 29.4923C6.65509 29.2596 6.27508 29.2596 6.08508 29.4923L3.12108 32.5168C2.89308 30.8882 3.42508 29.1433 4.60308 27.9413C6.12309 26.3903 8.36509 25.9637 10.3411 26.8168C10.5691 26.8943 10.7971 26.8556 10.9871 26.7005L26.0731 11.3066C26.2251 11.1515 26.3011 10.8801 26.1871 10.6474C25.3131 8.63107 25.7691 6.34332 27.2891 4.7923C28.4671 3.59026 30.1771 3.0474 31.8111 3.31883L28.8471 6.34332C28.6191 6.57597 28.6191 6.92495 28.8471 7.1576L32.3431 10.7249C32.5711 10.9576 32.9131 10.9576 33.1411 10.7249L36.1051 7.70046C36.3711 9.36781 35.8391 11.0739 34.6611 12.3147C33.1411 13.8658 30.8991 14.2923 28.9231 13.4392C28.6951 13.3617 28.4671 13.4005 28.2771 13.5556L13.1531 28.9107C13.0011 29.1045 12.9631 29.3372 13.0391 29.5698ZM36.0671 32.5556L33.1031 29.5311C32.8751 29.2984 32.4951 29.2984 32.3051 29.5311L28.8091 33.0984C28.5811 33.3311 28.5811 33.68 28.8091 33.9127L31.7731 36.9372C30.1391 37.2086 28.4671 36.6658 27.2511 35.4637C25.7311 33.9127 25.3131 31.6249 26.1491 29.6086C26.2251 29.376 26.1871 29.1433 26.0351 28.9494L20.4111 23.1719L22.5771 20.9617L28.2391 26.7392C28.3911 26.8943 28.6571 26.9719 28.8851 26.8556C30.8611 25.9637 33.1031 26.429 34.6231 27.98C35.8011 29.1433 36.3331 30.8882 36.0671 32.5556Z" fill="black"/>
</g>
<defs>
<clipPath id="clip0_0_563">
<rect width="38" height="38" fill="white" transform="translate(0.613037 0.643311)"/>
</clipPath>
</defs>
</svg>
